<svg width="20" height="20" viewBox="0 0 20 20" fill="none" xmlns="http://www.w3.org/2000/svg">
<path d="M17.4998 13.3333V5.99992C17.4998 5.0665 17.4998 4.59979 17.3182 4.24327C17.1584 3.92966 16.9034 3.6747 16.5898 3.51491C16.2333 3.33325 15.7666 3.33325 14.8332 3.33325H5.1665C4.23308 3.33325 3.76637 3.33325 3.40985 3.51491C3.09625 3.6747 2.84128 3.92966 2.68149 4.24327C2.49984 4.59979 2.49984 5.0665 2.49984 5.99992V13.3333M3.88873 16.6666H16.1109C16.6276 16.6666 16.8859 16.6666 17.0979 16.6098C17.673 16.4557 18.1223 16.0064 18.2764 15.4313C18.3332 15.2193 18.3332 14.961 18.3332 14.4444C18.3332 14.186 18.3332 14.0569 18.3048 13.9509C18.2277 13.6633 18.0031 13.4387 17.7155 13.3616C17.6095 13.3333 17.4804 13.3333 17.2221 13.3333H2.77762C2.51929 13.3333 2.39013 13.3333 2.28415 13.3616C1.99658 13.4387 1.77195 13.6633 1.6949 13.9509C1.6665 14.0569 1.6665 14.186 1.6665 14.4444C1.6665 14.961 1.6665 15.2193 1.72329 15.4313C1.87741 16.0064 2.32665 16.4557 2.90181 16.6098C3.11375 16.6666 3.37208 16.6666 3.88873 16.6666Z" stroke="#757575" stroke-width="1.5" stroke-linecap="round" stroke-linejoin="round"/>
</svg>
