<svg width="17" height="17" viewBox="0 0 17 17" fill="none" xmlns="http://www.w3.org/2000/svg">
<path d="M6.2647 1.72354C6.07947 1.6739 5.82863 1.66675 5 1.66675H4.58333C3.98951 1.66675 3.58587 1.6672 3.27217 1.6886C2.96596 1.70949 2.80678 1.74753 2.69553 1.79361C2.28715 1.96277 1.96269 2.28723 1.79354 2.69561C1.74745 2.80686 1.70941 2.96604 1.68852 3.27225C1.66712 3.58595 1.66667 3.98958 1.66667 4.58341V12.0834C1.66667 12.6772 1.66712 13.0809 1.68852 13.3946C1.70941 13.7008 1.74745 13.86 1.79353 13.9712C1.96269 14.3796 2.28715 14.7041 2.69553 14.8732C2.80678 14.9193 2.96596 14.9573 3.27217 14.9782C3.58587 14.9996 3.98951 15.0001 4.58333 15.0001H5C5.82863 15.0001 6.07947 14.9929 6.2647 14.9433C6.83985 14.7892 7.2891 14.3399 7.44321 13.7648C7.49284 13.5795 7.5 13.3287 7.5 12.5001C7.5 12.0398 7.8731 11.6667 8.33333 11.6667C8.79357 11.6667 9.16667 12.0398 9.16667 12.5001L9.16671 12.6147C9.16707 13.2775 9.16733 13.7698 9.05309 14.1961C8.74486 15.3465 7.84637 16.2449 6.69606 16.5532C6.26969 16.6674 5.77747 16.6671 5.11465 16.6668L4.55477 16.6667C3.99661 16.6668 3.53589 16.6668 3.15872 16.641C2.76765 16.6143 2.4059 16.5572 2.05772 16.413C1.24096 16.0747 0.592049 15.4258 0.253736 14.609C0.109516 14.2608 0.052404 13.8991 0.0257213 13.508C-1.28134e-05 13.1309 -6.91236e-06 12.6701 2.37284e-07 12.112V4.55486C-6.91236e-06 3.9967 -1.28134e-05 3.53597 0.0257214 3.1588C0.0524041 2.76773 0.109516 2.40598 0.253737 2.0578C0.59205 1.24104 1.24096 0.592128 2.05772 0.253815C2.4059 0.109595 2.76765 0.0524835 3.15872 0.025801C3.53589 6.66656e-05 3.99662 7.27258e-05 4.55478 8.01764e-05L5.11465 3.93472e-05C5.77747 -0.000319572 6.26969 -0.0005861 6.69607 0.113661C7.84637 0.421885 8.74486 1.32038 9.05309 2.47068C9.16733 2.89706 9.16707 3.38927 9.16671 4.05209L9.16667 4.16675C9.16667 4.62698 8.79357 5.00008 8.33333 5.00008C7.8731 5.00008 7.5 4.62698 7.5 4.16675C7.5 3.33812 7.49284 3.08728 7.44321 2.90205C7.2891 2.3269 6.83985 1.87765 6.2647 1.72354Z" fill="#DD3131"/>
<path d="M11.0774 3.57751C11.4028 3.25208 11.9305 3.25208 12.2559 3.57751L16.4226 7.74418C16.748 8.06962 16.748 8.59725 16.4226 8.92269L12.2559 13.0894C11.9305 13.4148 11.4028 13.4148 11.0774 13.0894C10.752 12.7639 10.752 12.2363 11.0774 11.9108L13.8215 9.16677H5.83333C5.3731 9.16677 5 8.79367 5 8.33343C5 7.8732 5.3731 7.5001 5.83333 7.5001H13.8215L11.0774 4.75602C10.752 4.43059 10.752 3.90295 11.0774 3.57751Z" fill="#DD3131"/>
</svg>
