<svg width="14" height="15" viewBox="0 0 14 15" fill="none" xmlns="http://www.w3.org/2000/svg">
<path d="M7.90935 13.4167H5.24269M10.576 4.75C10.576 3.68913 10.1546 2.67172 9.40445 1.92157C8.6543 1.17143 7.63689 0.75 6.57602 0.75C5.51516 0.75 4.49774 1.17143 3.74759 1.92157C2.99745 2.67172 2.57602 3.68913 2.57602 4.75C2.57602 6.81012 2.05633 8.22064 1.4758 9.15361C0.986106 9.94058 0.74126 10.3341 0.750238 10.4438C0.760179 10.5654 0.785928 10.6117 0.883872 10.6844C0.972327 10.75 1.37108 10.75 2.16859 10.75H10.9835C11.781 10.75 12.1797 10.75 12.2682 10.6844C12.3661 10.6117 12.3919 10.5654 12.4018 10.4438C12.4108 10.3341 12.1659 9.94058 11.6762 9.15361C11.0957 8.22064 10.576 6.81012 10.576 4.75Z" stroke="#757575" stroke-width="1.5" stroke-linecap="round" stroke-linejoin="round"/>
</svg>
