<svg width="20" height="20" viewBox="0 0 20 20" fill="none" xmlns="http://www.w3.org/2000/svg">
<path d="M9.4185 18.0125C9.603 18.1201 9.69524 18.1739 9.82543 18.2018C9.92646 18.2235 10.0739 18.2235 10.1749 18.2018C10.3051 18.1739 10.3973 18.1201 10.5818 18.0125C12.2052 17.0654 16.6668 14.0904 16.6668 10.0001V6.01472C16.6668 5.34846 16.6668 5.01533 16.5579 4.72898C16.4616 4.47601 16.3052 4.25029 16.1021 4.07133C15.8722 3.86875 15.5603 3.75178 14.9365 3.51785L10.4683 1.84228C10.2951 1.77732 10.2085 1.74483 10.1193 1.73196C10.0403 1.72053 9.96003 1.72053 9.88098 1.73196C9.79187 1.74483 9.70524 1.77732 9.532 1.84228L5.06383 3.51785C4.43999 3.75178 4.12808 3.86875 3.89821 4.07133C3.69515 4.25029 3.53872 4.47601 3.44246 4.72898C3.3335 5.01533 3.3335 5.34846 3.3335 6.01472V10.0001C3.3335 14.0904 7.79513 17.0654 9.4185 18.0125Z" stroke="#757575" stroke-width="1.5" stroke-linecap="round" stroke-linejoin="round"/>
</svg>
