<svg width="32" height="24" viewBox="0 0 32 24" fill="none" xmlns="http://www.w3.org/2000/svg">
<path fill-rule="evenodd" clip-rule="evenodd" d="M29.6308 0.0172048C30.2015 0.0718175 30.7801 0.277931 31.3121 0.797146C32.3185 1.77938 32.3612 3.12454 32.3612 3.9167V19.4351C32.3612 19.8556 32.3451 20.3545 32.1987 20.8558C32.041 21.3958 31.7542 21.8723 31.3121 22.3038C30.8806 22.725 30.4106 23.0046 29.8755 23.1619C29.3738 23.3095 28.8744 23.3304 28.4345 23.3304H11.4188C11.0744 23.3304 10.7439 23.1947 10.4989 22.9526L0.0277011 12.607C-0.221189 12.3611 -0.361267 12.0258 -0.361267 11.6759C-0.361267 11.326 -0.221189 10.9907 0.027701 10.7448L10.4989 0.399192C10.7439 0.157134 11.0744 0.0213907 11.4188 0.0213907H28.4345C28.5626 0.0213907 28.6749 0.0169059 28.8076 0.011611C28.8548 0.00972422 28.9047 0.00773457 28.9587 0.00580834C29.1428 -0.000752462 29.3814 -0.00666378 29.6308 0.0172048ZM28.9466 2.62605C28.8042 2.63178 28.6202 2.63919 28.4345 2.63919H11.9564L2.80997 11.6759L11.9564 20.7126H28.4345C28.8135 20.7126 29.0063 20.6889 29.1368 20.6505C29.2339 20.622 29.3362 20.5743 29.4837 20.4304C29.6206 20.2967 29.661 20.2069 29.6858 20.122C29.7219 19.9984 29.7434 19.8138 29.7434 19.4351V3.9167C29.7434 3.5439 29.7237 3.26609 29.6704 3.04679C29.6213 2.84478 29.5549 2.74004 29.4837 2.67054C29.4591 2.64653 29.444 2.63578 29.4378 2.6319C29.4317 2.63016 29.415 2.62631 29.3815 2.6231C29.3148 2.61672 29.2223 2.61588 29.052 2.62195C29.0204 2.62307 28.985 2.6245 28.9466 2.62605ZM29.4407 2.63283C29.4406 2.63283 29.4389 2.63231 29.4378 2.6319L29.4407 2.63283ZM14.4144 5.58317C14.9225 5.06894 15.7512 5.06394 16.2655 5.572L19.9267 9.18932L23.5879 5.572C24.1021 5.06394 24.9309 5.06894 25.4389 5.58317C25.947 6.0974 25.942 6.92614 25.4278 7.4342L21.789 11.0293L25.4278 14.6244C25.942 15.1325 25.947 15.9612 25.4389 16.4755C24.9309 16.9897 24.1021 16.9947 23.5879 16.4866L19.9267 12.8693L16.2655 16.4866C15.7512 16.9947 14.9225 16.9897 14.4144 16.4755C13.9064 15.9612 13.9114 15.1325 14.4256 14.6244L18.0644 11.0293L14.4256 7.4342C13.9114 6.92614 13.9064 6.0974 14.4144 5.58317Z" fill="#000910"/>
</svg>
