<svg width="20" height="20" viewBox="0 0 20 20" fill="none" xmlns="http://www.w3.org/2000/svg">
<path d="M8.825 5.61254C8.91875 5.19222 8.84688 5.39222 8.24219 4.50785C7.69844 3.7141 7.81094 2.58597 7.16719 2.02504C6.77188 1.68129 6.27657 1.29535 4.43125 2.22347C3.79063 2.54535 2.51094 3.60629 1.06094 4.09222C-0.106246 4.48285 0.540629 4.95472 0.789066 5.04222C1.67344 5.35316 2.84375 4.68129 2.84375 4.68129C2.84375 4.68129 1.16563 5.77816 2.15157 6.03754C2.95157 6.24847 3.95938 5.28754 3.95938 5.28754C3.95938 5.28754 2.97188 6.33441 3.77969 6.60316C4.33438 6.78754 5.43594 5.73441 5.43594 5.73441C5.43594 5.73441 4.66563 6.80472 5.0375 7.03129C5.60313 7.37504 6.52969 6.4891 6.52969 6.4891C6.52969 6.4891 5.79375 7.5641 6.17813 7.7391C6.75313 8.0016 7.60625 7.2641 7.60625 7.2641C7.60625 7.2641 8.65625 6.3641 8.825 5.61254Z" fill="#E0E0E0"/>
<path d="M5.57499 2.15002C5.57499 2.15002 4.56874 2.74065 4.20156 3.21565C4.15312 3.27815 3.85156 3.57971 4.11718 3.75315C4.18437 3.7969 4.38437 3.76877 4.50312 3.6969C5.04374 3.36877 5.99999 2.59065 6.10468 2.63127C6.20937 2.6719 5.24999 3.30315 4.94062 4.06721C4.82499 4.35471 5.04999 4.56096 5.63593 4.21565C6.27343 3.84065 6.82187 3.17971 6.91406 3.18284C6.91406 3.18284 6.65781 3.62971 6.32968 3.98284C5.99531 4.34377 5.75937 4.71096 6.00624 4.82659C6.31718 4.97346 6.98906 4.57502 6.98906 4.57502C6.98906 4.57502 6.56093 5.09377 6.00624 5.21096C5.81093 5.25315 5.65781 5.22659 5.56406 5.12034C5.42187 4.95784 5.47656 4.70784 5.47656 4.70784C5.18124 4.82502 4.67187 5.01565 4.36874 4.7594C4.13281 4.5594 4.45468 3.97346 4.45468 3.97346C4.45468 3.97346 3.88437 4.28909 3.55937 4.19377C3.39062 4.14377 3.13281 3.90002 3.50937 3.38284C4.10312 2.57502 5.57499 2.15002 5.57499 2.15002ZM6.77812 7.83284C7.42968 6.98596 8.08124 6.14065 8.73281 5.29377L8.67656 5.05002C8.64843 4.96409 8.39218 4.95315 8.03749 5.15784C7.79999 5.29534 7.36406 5.78909 7.08437 5.51721C6.89062 5.32971 7.44687 4.6594 7.44687 4.6594C7.37031 4.66096 6.75312 5.07346 6.65468 5.48752C6.57031 5.83909 6.65156 6.25159 7.44531 5.85002C7.46874 5.83752 7.49374 5.82346 7.51718 5.8094C7.41718 5.96721 7.32656 6.13284 7.24999 6.30159C7.02812 6.78909 6.89687 7.31096 6.77812 7.83284Z" fill="#BDBDBD"/>
<path d="M12.7172 1.73901L12.7281 1.74683L12.7172 1.73901Z" fill="url(#paint0_linear_20_36514)"/>
<path d="M13.6141 11.0672C12.0437 13.4203 10.7234 16.0125 7.72031 16.8062C7.68906 16.814 7.65625 16.8047 7.63437 16.7812L2.72812 11.3672C2.58281 11.2062 2.65469 10.9515 2.86094 10.8844C4.87812 10.2219 6.1375 8.64373 7.25937 6.96091C8.80625 4.64373 10.1312 2.09373 13.0391 1.25779C13.15 1.2156 13.2797 1.24216 13.3641 1.33435C14.0156 2.0531 18.9297 6.73123 18.9375 6.7406C18.9406 6.74216 14.8187 9.26091 13.6141 11.0672Z" fill="#66BB6A"/>
<path d="M9.07968 12.1422C8.97343 12.036 8.84687 11.9828 8.7 11.9844C8.55312 11.986 8.3625 12.0453 8.12656 12.1625C7.80625 12.3328 7.52812 12.4125 7.29531 12.4047C7.0625 12.3953 6.85312 12.2985 6.66875 12.1125C6.47968 11.9235 6.37968 11.7125 6.37031 11.4813C6.35937 11.25 6.43906 11.0266 6.60937 10.811L6.31093 10.511C6.28988 10.4895 6.27809 10.4606 6.27809 10.4305C6.27809 10.4004 6.28988 10.3715 6.31093 10.35L6.40781 10.2531C6.45156 10.2094 6.52343 10.2094 6.56875 10.2531L6.86875 10.5547C7.08906 10.3875 7.32187 10.3188 7.56562 10.3469C7.78437 10.3735 8 10.4813 8.21093 10.675C8.25156 10.7125 8.25156 10.7781 8.2125 10.8172L8.03437 10.9953C7.99687 11.0328 7.93593 11.0328 7.89687 10.9969C7.75625 10.875 7.61093 10.8047 7.4625 10.7891C7.28906 10.7703 7.13593 10.8266 7.00468 10.9578C6.86718 11.0953 6.79687 11.236 6.79531 11.3781C6.79375 11.5219 6.85625 11.6578 6.98281 11.7844C7.1 11.9031 7.23281 11.9578 7.37968 11.9516C7.52656 11.9453 7.71562 11.8828 7.95 11.7641C8.18437 11.6453 8.38281 11.5719 8.55156 11.5422C8.71875 11.5125 8.87187 11.5203 9.00937 11.5641C9.14687 11.6094 9.27656 11.6922 9.39843 11.8141C9.59218 12.0094 9.69062 12.225 9.69218 12.461C9.69375 12.6969 9.6 12.9313 9.40937 13.1641L9.65937 13.4141C9.70312 13.4578 9.70312 13.5297 9.65937 13.575L9.56406 13.6703C9.52031 13.7141 9.44843 13.7141 9.40312 13.6703L9.15312 13.4203C8.91875 13.6141 8.67343 13.7063 8.41875 13.6938C8.19218 13.6828 7.975 13.586 7.76875 13.4031C7.75885 13.3942 7.75091 13.3833 7.74543 13.3711C7.73995 13.3589 7.73704 13.3457 7.73689 13.3324C7.73675 13.319 7.73936 13.3058 7.74457 13.2935C7.74979 13.2812 7.75748 13.2701 7.76718 13.261L7.94843 13.0813C7.98437 13.0453 8.04218 13.0422 8.08125 13.075C8.22031 13.1953 8.36406 13.2563 8.5125 13.2594C8.68281 13.2625 8.84531 13.186 9 13.0313C9.15156 12.8813 9.23437 12.725 9.24843 12.5672C9.25937 12.4094 9.20468 12.2672 9.07968 12.1422Z" fill="white"/>
<path d="M9.47969 13.2406L9.15157 13.4235L6.61563 10.8203L6.52969 10.7328L6.86876 10.5563L9.40469 13.1657L9.47969 13.2406Z" fill="white"/>
<path opacity="0.5" d="M11.8562 9.37026C13.1006 9.37026 14.1094 8.36151 14.1094 7.11714C14.1094 5.87277 13.1006 4.86401 11.8562 4.86401C10.6119 4.86401 9.60312 5.87277 9.60312 7.11714C9.60312 8.36151 10.6119 9.37026 11.8562 9.37026Z" fill="#2E7D32"/>
<path d="M14.4 12.2531C13.5953 13.4594 12.4359 15.761 10.8391 17.0266C9.37343 18.1891 7.52499 18.7625 7.52499 18.7625L2.43906 12.8063L2.64999 11.1719L7.63749 16.7828C7.65781 16.8047 7.68906 16.8156 7.71874 16.8078C10.7234 16.0141 12.0437 13.4219 13.6141 11.0688C14.8187 9.26252 16.6203 7.33752 18.9391 6.74377C19.1234 6.9469 19.0422 8.65002 18.8406 8.71721C16.7859 9.39846 15.525 10.5641 14.4 12.2531Z" fill="#2E7D32"/>
<path d="M12.3203 13.05L12.7922 14.7922C12.7922 14.7922 14.2297 12.6891 14.4625 12.1797L13.9406 10.6094C13.2438 11.4766 12.3203 13.05 12.3203 13.05Z" fill="#FFC06C"/>
<path d="M12.1984 2.65786C12.3187 2.8313 12.5297 3.01099 12.8687 3.11567C12.9891 3.15317 13.1156 3.17192 13.2422 3.17192C13.5109 3.17192 13.7359 3.08911 13.8875 3.01255C14.2672 3.3938 14.7422 3.85786 15.2016 4.30786C15.6516 4.74849 16.1141 5.20161 16.4906 5.57817C16.3687 5.76411 16.2719 6.04536 16.3125 6.42505C16.3312 6.60005 16.4547 6.77817 16.5859 6.92349C15.7547 7.45786 14.1594 8.64536 12.5234 10.7391C12.1781 11.1813 11.8406 11.6719 11.5156 12.1454C10.7062 13.3235 9.87031 14.5391 8.75781 15.2829C8.62656 15.0688 8.38437 14.8094 7.95156 14.7016C7.84687 14.675 7.74375 14.6625 7.64531 14.6625C7.36719 14.6625 7.14844 14.7657 6.99219 14.8875L4.63281 12.175C4.83125 12.0204 5.01719 11.7563 5.03594 11.3485C5.04531 11.1579 4.94375 10.9844 4.82812 10.8532C5.97812 10.0016 7.19219 8.6438 7.84531 7.6688C7.94062 7.52661 8.03906 7.37817 8.14062 7.22505C9.1625 5.68286 10.5469 3.60161 12.1984 2.65786ZM12.3219 2.29224C10.3344 3.27661 8.75156 5.84067 7.625 7.5188C6.8875 8.61724 5.55469 10.05 4.40625 10.8235C4.40625 10.8235 4.78281 11.0907 4.77031 11.3329C4.73906 11.9829 4.21094 12.0922 4.21094 12.0922L6.98438 15.2797C6.98438 15.2797 7.1875 14.9235 7.64375 14.9235C7.71719 14.9235 7.79844 14.9329 7.88594 14.9547C8.51406 15.111 8.64062 15.6641 8.64062 15.6641C10.4125 14.6329 11.4828 12.4969 12.7297 10.8985C14.4219 8.7313 16.1047 7.50317 17.0156 6.96411C17.0156 6.96411 16.5969 6.62505 16.5734 6.3938C16.5094 5.78599 16.8531 5.56724 16.8531 5.56724C16.0484 4.75317 14.7266 3.48599 13.9266 2.67505C13.9266 2.67505 13.6359 2.90317 13.2406 2.90317C13.1469 2.90317 13.0469 2.89067 12.9453 2.85942C12.3703 2.68599 12.3219 2.29224 12.3219 2.29224Z" fill="#2E7D32"/>
<path d="M8.40938 5.2063L6.88907 7.50474L12.3203 13.05C12.3203 13.05 13.2078 11.6469 13.9391 10.6094L8.40938 5.2063Z" fill="#FFECB3"/>
<path opacity="0.68" d="M14.1594 11.2688C14.1594 11.2688 13.0875 11.8141 12.7953 13.4766C12.6844 14.1047 12.7938 14.7922 12.7938 14.7922L13.6781 13.4313L14.3109 11.5391L14.1594 11.2688Z" fill="#D69136"/>
<path d="M13.8516 11.6297C14.1625 11.3313 14.2656 11.2391 15.2375 11.1688C16.1969 11.0985 16.6375 10.6782 17.85 10.9297C18.3625 11.036 19.175 11.5047 18.9687 13.3735C18.8906 14.086 18.9094 15.7329 19.2453 17.2251C19.5156 18.4251 18.7766 18.1172 18.5734 17.9501C17.8484 17.3547 17.8172 16.0063 17.8172 16.0063C17.8172 16.0063 17.7484 18.0094 17.0156 17.3016C16.4219 16.7266 16.7203 15.3672 16.7203 15.3672C16.7203 15.3672 16.3359 16.7547 15.6875 16.2016C15.2422 15.8219 15.5734 14.3344 15.5734 14.3344C15.5734 14.3344 15.0562 15.5485 14.6719 15.3469C14.0844 15.0407 14.3625 13.7891 14.3625 13.7891C14.3625 13.7891 13.825 14.9751 13.475 14.736C12.9531 14.3797 13.1422 13.2688 13.1422 13.2688C13.1422 13.2688 13.2953 12.1626 13.8516 11.6297Z" fill="#E0E0E0"/>
<path d="M18.4906 12.3875C18.4906 12.3875 18.5656 13.3531 18.4984 13.9296C18.4562 14.2875 18.4375 14.6156 18.1094 14.5671C18.0297 14.5546 17.8437 14.4 17.8109 13.8046C17.7766 13.1734 17.9078 12.339 17.8156 12.2765C17.7234 12.2125 17.7187 13.3078 17.2625 13.9937C17.0906 14.2515 16.8016 14.2796 16.7562 13.6C16.7062 12.8609 17.0891 11.9859 17.0344 11.9109C17.0344 11.9109 16.7109 12.3093 16.5234 12.8734C16.3359 13.4375 16.2531 13.7031 16.0328 13.5406C15.6375 13.25 16.2172 12.0921 16.2172 12.0921C16.2172 12.0921 15.7922 12.4718 15.6078 13.0031C15.4906 13.3406 15.5547 13.8953 15.8547 14.0359C16.2078 14.2015 16.4141 13.9062 16.4141 13.9062C16.4141 13.9062 16.4891 14.8515 16.95 14.8312C17.3922 14.8109 17.5047 14.3125 17.5047 14.3125C17.5047 14.3125 17.4859 14.7937 17.9328 15.1234C18.15 15.2843 18.6547 15.3109 18.7172 14.6734C18.8187 13.639 18.4906 12.3875 18.4906 12.3875ZM14.8547 12.0484C14.7594 12.025 14.6219 12.4546 14.45 12.6968C14.3844 12.7875 14.2437 12.9734 14.0281 12.9578C13.8125 12.9421 13.9828 12.3078 13.9328 12.3421C13.8828 12.3765 13.6812 12.7156 13.7609 13.1093C13.7828 13.2187 13.8937 13.3484 14.0031 13.3656C14.4125 13.4312 14.5922 12.9281 14.5922 12.9281C14.5922 12.9281 14.5312 13.5296 14.9359 13.5921C15.425 13.6671 15.525 12.8968 15.4812 12.8687C15.4375 12.8406 15.2797 13.3531 14.9312 13.1343C14.6453 12.9531 14.95 12.0734 14.8547 12.0484Z" fill="#BDBDBD"/>
<path d="M2.43906 12.8047L7.50624 18.7406C7.50624 18.7406 7.73281 18.4047 7.78437 17.8812C7.82968 17.425 7.67031 16.8187 7.67031 16.8187L2.64999 11.1703L2.43906 12.8047Z" fill="#206022"/>
<defs>
<linearGradient id="paint0_linear_20_36514" x1="12.7229" y1="1.74319" x2="12.7229" y2="1.74319" gradientUnits="userSpaceOnUse">
<stop stop-color="#43A047"/>
<stop offset="0.999" stop-color="#66BB6A"/>
</linearGradient>
</defs>
</svg>
