<svg width="32" height="32" viewBox="0 0 32 32" fill="none" xmlns="http://www.w3.org/2000/svg">
<path d="M10.6009 27.7729C8.78187 25.177 7.71179 22.0187 7.71179 18.6086C7.71179 14.1924 11.2898 10.613 15.7034 10.613C20.1169 10.613 23.695 14.1924 23.695 18.6086" stroke="#000910" stroke-width="1.96312" stroke-linecap="round" stroke-linejoin="round"/>
<path d="M10.601 27.7729C8.78199 25.177 7.71191 22.0187 7.71191 18.6086C7.71191 14.1924 11.2899 10.613 15.7035 10.613C20.1171 10.613 23.6951 14.1924 23.6951 18.6086" stroke="#000910" stroke-width="1.96312" stroke-linecap="round" stroke-linejoin="round"/>
<path d="M24.1281 26.5832C23.9842 26.5911 23.8429 26.6045 23.6977 26.6045C19.2841 26.6045 15.7061 23.0251 15.7061 18.6089" stroke="#000910" stroke-width="1.96312" stroke-linecap="round" stroke-linejoin="round"/>
<path d="M24.1283 26.5832C23.9844 26.5911 23.8431 26.6045 23.6979 26.6045C19.2843 26.6045 15.7063 23.0251 15.7063 18.6089" stroke="#000910" stroke-width="1.96312" stroke-linecap="round" stroke-linejoin="round"/>
<path d="M17.3663 28.7923C13.9709 26.6748 11.7095 22.9062 11.7095 18.6086C11.7095 16.4005 13.4991 14.6108 15.7059 14.6108C17.9127 14.6108 19.7024 16.4005 19.7024 18.6086C19.7024 20.8167 21.4921 22.6064 23.6988 22.6064C25.9056 22.6064 27.6953 20.8167 27.6953 18.6086C27.6953 11.9843 22.3276 6.61523 15.7073 6.61523C9.08691 6.61523 3.71921 11.9843 3.71921 18.6086C3.71921 20.0851 3.88445 21.523 4.18828 22.9089" stroke="#000910" stroke-width="1.96312" stroke-linecap="round" stroke-linejoin="round"/>
<path d="M17.3663 28.7923C13.9709 26.6748 11.7095 22.9062 11.7095 18.6086C11.7095 16.4005 13.4991 14.6108 15.7059 14.6108C17.9127 14.6108 19.7024 16.4005 19.7024 18.6086C19.7024 20.8167 21.4921 22.6064 23.6988 22.6064C25.9056 22.6064 27.6953 20.8167 27.6953 18.6086C27.6953 11.9843 22.3276 6.61523 15.7073 6.61523C9.08691 6.61523 3.71921 11.9843 3.71921 18.6086C3.71921 20.0851 3.88445 21.523 4.18828 22.9089" stroke="#000910" stroke-width="1.96312" stroke-linecap="round" stroke-linejoin="round"/>
<path d="M26.8631 7.67331C24.1379 4.57768 20.1534 2.61743 15.7052 2.61743C11.257 2.61743 7.27256 4.57768 4.54739 7.67331" stroke="#000910" stroke-width="1.96312" stroke-linecap="round" stroke-linejoin="round"/>
<path d="M26.8631 7.67331C24.1379 4.57768 20.1534 2.61743 15.7052 2.61743C11.257 2.61743 7.27256 4.57768 4.54739 7.67331" stroke="#000910" stroke-width="1.96312" stroke-linecap="round" stroke-linejoin="round"/>
</svg>
