<svg width="15" height="15" viewBox="0 0 15 15" fill="none" xmlns="http://www.w3.org/2000/svg">
<path fill-rule="evenodd" clip-rule="evenodd" d="M7.33333 0C3.28325 0 0 3.28325 0 7.33333C0 11.3834 3.28325 14.6667 7.33333 14.6667C11.3834 14.6667 14.6667 11.3834 14.6667 7.33333C14.6667 3.28325 11.3834 0 7.33333 0ZM7.33333 4C6.96514 4 6.66667 4.29848 6.66667 4.66667C6.66667 5.03486 6.96514 5.33333 7.33333 5.33333H7.34C7.70819 5.33333 8.00667 5.03486 8.00667 4.66667C8.00667 4.29848 7.70819 4 7.34 4H7.33333ZM8 7.33333C8 6.96514 7.70152 6.66667 7.33333 6.66667C6.96514 6.66667 6.66667 6.96514 6.66667 7.33333V10C6.66667 10.3682 6.96514 10.6667 7.33333 10.6667C7.70152 10.6667 8 10.3682 8 10V7.33333Z" fill="#E2E2E3"/>
</svg>
