<svg width="24" height="24" viewBox="0 0 24 24" fill="none" xmlns="http://www.w3.org/2000/svg">
<path fill-rule="evenodd" clip-rule="evenodd" d="M15.4571 6.79289C15.8476 7.18342 15.8476 7.81658 15.4571 8.20711L6.45711 17.2071C6.06658 17.5976 5.43342 17.5976 5.04289 17.2071L1.29289 13.4571C0.902369 13.0666 0.902369 12.4334 1.29289 12.0429C1.68342 11.6524 2.31658 11.6524 2.70711 12.0429L5.75 15.0858L14.0429 6.79289C14.4334 6.40237 15.0666 6.40237 15.4571 6.79289ZM22.2071 6.79289C22.5976 7.18342 22.5976 7.81658 22.2071 8.20711L13.2071 17.2071C12.8166 17.5976 12.1834 17.5976 11.7929 17.2071L10.2929 15.7071C9.90237 15.3166 9.90237 14.6834 10.2929 14.2929C10.6834 13.9024 11.3166 13.9024 11.7071 14.2929L12.5 15.0858L20.7929 6.79289C21.1834 6.40237 21.8166 6.40237 22.2071 6.79289Z" fill="#46B583"/>
</svg>
